HIERARCHY
ROOT Hips
{
	OFFSET -0.179506 -22.333345 2.821913
	CHANNELS 6 Xposition Yposition Zposition Zrotation Yrotation Xrotation 
	JOINT LeftUpLeg
	{
		OFFSET 6.951974 -9.140623 -0.681533
		CHANNELS 3 Zrotation Yrotation Xrotation
		JOINT LeftLeg
		{
			OFFSET 3.427654 -37.519855 -0.449580
			CHANNELS 3 Zrotation Yrotation Xrotation
			JOINT LeftFoot
			{
				OFFSET -1.359570 -39.796059 -4.369333
				CHANNELS 3 Zrotation Yrotation Xrotation
				JOINT LeftToe
				{
					OFFSET 2.635814 -5.579078 11.928840
					CHANNELS 3 Zrotation Yrotation Xrotation
					End Site
					{
						OFFSET 0.000000 0.000000 0.000000
					}
				}
			}
		}
	}
	JOINT RightUpLeg
	{
		OFFSET -6.767048 -9.052170 -0.431982
		CHANNELS 3 Zrotation Yrotation Xrotation
		JOINT RightLeg
		{
			OFFSET -3.829005 -38.256897 -0.885003
			CHANNELS 3 Zrotation Yrotation Xrotation
			JOINT RightFoot
			{
				OFFSET 1.577377 -39.841461 -4.231180
				CHANNELS 3 Zrotation Yrotation Xrotation
				JOINT RightToe
				{
					OFFSET -2.537174 -4.814398 12.334795
					CHANNELS 3 Zrotation Yrotation Xrotation
					End Site
					{
						OFFSET 0.000000 0.000000 0.000000
					}
				}
			}
		}
	}
	JOINT Spine
	{
		OFFSET -0.253288 10.896323 -2.669631
		CHANNELS 3 Zrotation Yrotation Xrotation
		JOINT Spine1
		{
			OFFSET 0.548704 13.518043 0.109247
			CHANNELS 3 Zrotation Yrotation Xrotation
			JOINT Spine2
			{
				OFFSET 0.145701 5.292222 2.542457
				CHANNELS 3 Zrotation Yrotation Xrotation
				JOINT Neck
				{
					OFFSET -0.277840 21.387037 -4.285703
					CHANNELS 3 Zrotation Yrotation Xrotation
					JOINT Head
					{
						OFFSET 0.515184 6.496960 5.134897
						CHANNELS 3 Zrotation Yrotation Xrotation
						End Site
						{
							OFFSET 0.000000 0.000000 0.000000
						}
					}
				}
				JOINT LeftShoulder
				{
					OFFSET 7.884473 12.174932 -3.408961
					CHANNELS 3 Zrotation Yrotation Xrotation
					JOINT LeftArm
					{
						OFFSET 9.097692 3.046888 -0.886815
						CHANNELS 3 Zrotation Yrotation Xrotation
						JOINT LeftForeArm
						{
							OFFSET 25.961220 -1.277207 -2.745643
							CHANNELS 3 Zrotation Yrotation Xrotation
							JOINT LeftHand
							{
								OFFSET 24.923361 0.898606 -0.117091
								CHANNELS 3 Zrotation Yrotation Xrotation
								End Site
								{
									OFFSET 0.000000 0.000000 0.000000
								}
							}
						}
					}
				}
				JOINT RightShoulder
				{
					OFFSET -8.175920 11.883285 -3.861528
					CHANNELS 3 Zrotation Yrotation Xrotation
					JOINT RightArm
					{
						OFFSET -9.601238 3.255117 -0.914307
						CHANNELS 3 Zrotation Yrotation Xrotation
						JOINT RightForeArm
						{
							OFFSET -25.374195 -1.332924 -2.140099
							CHANNELS 3 Zrotation Yrotation Xrotation
							JOINT RightHand
							{
								OFFSET -25.529810 0.777228 -0.555919
								CHANNELS 3 Zrotation Yrotation Xrotation
								End Site
								{
									OFFSET 0.000000 0.000000 0.000000
								}
							}
						}
					}
				}
			}
		}
	}
}
MOTION
Frames: 14
Frame Time: 0.033333
-0.179506 121.471619 2.821913 -88.215721 16.136740 -144.864355 27.949836 28.948566 -50.295912 1.940704 15.962302 28.667608 0.183458 10.835593 4.540085 -0.553308 0.183987 -0.667445 -43.774308 -13.374909 -11.373723 3.807766 12.543899 24.409159 10.502930 3.787787 5.639092 1.759310 -0.695752 -0.809428 4.185363 5.269710 29.719931 1.573970 -1.252108 4.051085 2.026896 1.751302 -3.612317 -7.353599 10.558045 13.106152 2.131785 4.308858 -22.207400 -14.933344 0.387440 2.348283 -22.953210 6.263705 -0.989336 -1.369311 -18.472872 -16.095088 70.792770 -5.998573 -10.910455 8.995698 2.127243 -1.604214 13.916980 -0.588889 -18.181045 -61.319486 56.022688 -73.926089 -49.104483 2.648891 -17.077965 
-0.588139 121.713882 2.772045 -91.386253 12.754594 -138.706237 27.724357 28.388510 -55.202130 1.957881 15.796740 32.988916 0.695571 11.102488 3.644824 -0.531623 0.265255 -0.619588 -42.945189 -15.188876 -12.654196 3.404908 11.045353 19.584503 12.468360 3.121787 6.765394 1.751339 -0.909451 -0.585370 3.410618 6.964867 33.123992 1.346781 -1.622368 4.052876 2.257232 2.400422 -3.320644 -6.992425 9.942405 9.209102 4.066332 1.387915 -23.710726 -14.367308 -2.978704 0.579650 -20.472414 1.628625 -0.984524 -1.827811 -17.649375 -17.555716 69.737811 -6.614320 -9.900454 10.681146 4.358794 -1.979235 14.740470 1.967873 -15.405803 -67.806203 59.676093 -77.582250 -49.895628 4.162709 -15.872100 
-1.084241 122.267792 2.444826 -97.956546 8.181985 -130.590861 27.447834 27.489641 -60.533209 -0.218133 14.029159 36.518883 0.937406 9.374821 0.493973 -0.332756 0.322453 -0.560861 -41.638333 -17.776029 -13.963165 2.366136 9.564186 12.407411 15.157085 0.951436 9.259543 1.610754 -0.865312 -0.711266 2.308195 9.197420 37.008697 0.704987 -1.380993 5.403896 2.566268 3.265550 -3.552705 -7.754067 8.299454 2.746238 6.209576 -2.697082 -25.042963 -12.661355 -9.652559 -1.943362 -14.752476 -4.401118 -3.294993 -1.627188 -19.357275 -18.748739 65.573027 -9.245080 -8.176705 11.196950 9.625852 -2.554534 15.456809 5.648746 -13.671890 -74.167698 62.033067 -80.458059 -47.557626 7.672368 -12.951268 
-1.408273 122.938492 2.141155 -107.268830 3.170943 -116.790360 26.148065 26.314201 -65.778459 -4.351182 12.383795 43.960572 0.017663 7.068730 -7.141042 -0.290067 0.109847 -0.363939 -38.812385 -21.744521 -18.917131 1.293809 6.178747 6.992061 17.033509 -0.676828 9.809456 0.619005 -0.551880 -0.316922 1.593785 11.077973 41.606747 0.566087 -1.203138 6.427236 2.598855 3.930914 -5.759421 -8.748081 7.263431 -3.009164 7.717102 -6.435073 -25.837676 -9.326630 -16.458245 -4.031013 -5.013171 -10.096178 -7.134383 -1.713537 -21.754978 -19.733988 60.620942 -12.699659 -6.680038 11.572751 15.688509 -1.746518 14.121922 10.944754 -12.496631 -69.763142 63.011605 -75.782640 -47.338958 9.252241 -13.760139 
-1.156715 123.866333 1.662112 -116.879675 -1.318130 -96.606533 25.880887 27.080474 -69.978931 -7.672921 10.239615 49.354571 -0.772372 3.676177 -13.175107 -1.235417 0.527124 -0.372055 -38.649603 -26.200685 -24.556533 1.728662 5.019462 3.517785 20.312348 -1.359294 9.888535 0.917385 -0.775127 0.771198 1.622433 11.006935 46.310220 -0.318616 -1.017301 5.110988 2.993617 4.260312 -7.274451 -10.857067 6.586934 -6.116022 7.741009 -7.449752 -27.420720 -4.368396 -22.483327 -6.838023 6.631943 -11.444755 -11.617766 -2.523593 -24.517702 -19.984799 58.117870 -14.071561 -6.002706 7.567382 22.701452 -2.619980 5.777685 17.979909 -18.446805 -54.082502 60.776131 -65.581539 -49.776809 7.841954 -15.575642 
0.043653 124.841324 0.955850 -123.615324 -4.648089 -82.308339 28.959956 28.261467 -67.997175 -10.214199 0.794503 48.670915 -3.276455 1.708569 -15.539654 -1.527433 0.455886 -0.998705 -38.391279 -30.194278 -31.131353 2.439376 5.886288 3.192157 20.696248 -2.828418 7.534509 -0.176875 0.010890 0.576123 2.128265 8.723771 49.313545 -0.707961 -0.620195 2.696157 3.657776 4.879126 -8.767795 -11.262896 3.767588 -8.969732 8.460005 -8.166255 -28.189823 1.127049 -26.161245 -10.332987 12.818472 -11.903754 -14.665469 -2.502340 -24.808882 -21.620022 56.425292 -14.869636 -5.553138 -0.231474 29.271605 -6.033677 -5.127617 24.688765 -27.588688 -37.468253 56.430001 -52.256143 -47.758617 8.281046 -15.567517 
2.028154 126.352051 -0.164244 -132.135656 5.339077 -74.196438 32.599873 28.626096 -63.955572 -10.288356 -4.163381 47.664859 -5.346297 0.834174 -18.493709 -1.078524 -0.359843 -2.117367 -38.191301 -32.096820 -36.952025 2.502356 4.481956 4.685198 21.219911 -3.663743 6.610766 -2.248038 1.662946 0.057510 2.458916 6.712412 51.431847 -0.715303 -0.014961 3.367985 3.083208 5.020844 -11.275961 -11.825598 1.496268 -9.185559 9.335803 -8.297184 -30.939961 4.142419 -31.147769 -11.950182 16.462436 -13.693582 -16.817253 -5.111484 -21.943312 -20.347795 58.055754 -17.728981 -4.274492 -6.009131 34.745360 -8.564991 -16.345448 28.714498 -36.473154 -28.900271 49.306044 -47.519628 -54.998790 8.200837 -15.781920 
5.090496 128.160049 -1.008565 -140.004333 10.923035 -67.503106 36.358793 27.167615 -54.046350 -5.846135 -11.243517 30.435946 -10.338677 0.729495 -15.470629 -0.275558 -0.357440 -2.978847 -37.328678 -31.668532 -41.180569 2.473811 6.236840 8.500793 18.705513 -3.274225 1.125230 -0.301428 1.522237 0.201620 3.320914 3.379118 50.889613 -1.982634 0.975260 1.726405 3.310603 4.993598 -11.725980 -12.076203 -1.318733 -8.848660 11.000594 -8.308250 -31.717350 6.715953 -33.326042 -14.642707 17.944786 -15.600011 -18.865024 -3.922409 -19.638260 -20.265192 58.240639 -20.105730 -2.459820 -10.739289 38.033620 -11.119858 -23.658789 30.181710 -42.051001 -24.729193 43.787393 -45.289193 -57.646302 7.816546 -16.666775 
8.818645 130.245255 -1.983272 -150.326710 20.660767 -67.071235 37.593446 26.542542 -46.766426 -0.582716 -11.781897 14.199559 -13.949931 1.392964 -10.273724 -0.115161 0.158800 -2.456827 -36.408986 -29.519758 -45.713955 3.254842 6.891618 14.723171 15.839850 -1.827756 -3.717260 1.594934 0.782090 0.563948 4.572899 0.488546 49.620837 -2.196298 0.502932 2.293940 3.653233 4.256897 -11.714420 -12.063690 -1.467191 -6.256632 11.338935 -9.042950 -30.892863 7.714207 -36.308110 -15.673463 19.058914 -17.630766 -20.388369 -4.156242 -18.866606 -18.820088 52.575253 -23.951534 3.359723 -10.729052 39.183646 -11.093087 -25.256247 27.923081 -43.209914 -25.802621 41.765954 -47.216357 -58.993429 7.483893 -18.499996 
13.169369 132.673340 -2.490790 -161.638231 32.856821 -71.002952 35.687040 26.728690 -42.228208 0.648403 -5.133058 2.266446 -16.062126 3.101464 -3.711643 0.125408 0.749340 -1.115090 -32.935719 -25.115623 -50.713314 5.512724 7.413269 22.319261 11.187556 -1.869252 -11.675651 4.006851 -0.578565 1.335949 4.455874 -2.181670 49.531091 -1.690066 -1.575106 1.518266 4.480540 2.594721 -10.748597 -14.151303 -0.519877 -7.409894 11.068078 -6.938026 -31.592236 10.178625 -39.033711 -17.153060 18.650794 -18.828312 -22.105744 -3.221218 -17.650830 -17.456450 46.154915 -25.150847 8.451610 -12.943703 39.477302 -11.406032 -23.189437 25.247872 -41.422786 -27.528666 40.578359 -48.507528 -55.869755 8.303606 -18.132648 
17.384853 134.826813 -2.194417 -176.199226 40.764888 -81.617402 31.299377 23.688137 -39.963564 -0.717114 -3.615185 -0.854983 -15.767645 4.834549 -2.633894 2.093102 0.782626 -1.112391 -26.843245 -22.865446 -62.174379 10.536013 1.207669 39.926412 8.780823 -1.842757 -18.423663 3.853142 -0.816277 1.823912 3.842027 -4.992286 50.342941 -0.240831 -3.919930 -0.158051 4.893884 0.516171 -8.652436 -14.413034 0.966955 -7.332996 10.108730 -7.448556 -28.580766 12.588911 -39.798020 -18.487802 17.263894 -22.307531 -25.407535 -1.166369 -15.855245 -17.845313 42.331818 -22.769159 10.381537 -14.758628 37.263803 -13.227685 -14.443253 26.491011 -37.589481 -31.851260 40.858700 -50.821666 -56.356168 6.027312 -18.403399 
21.048597 136.022247 -1.652915 165.217515 44.603493 -98.440946 26.171362 23.266774 -36.958499 -2.457497 -0.249655 -0.532167 -15.858969 5.271973 1.885326 1.774407 0.378021 -0.375124 -22.288426 -15.958419 -67.437725 8.812912 -2.778619 42.419401 7.891666 -2.580169 -21.584767 3.371048 -0.365213 1.742965 3.121041 -7.430762 49.484592 1.838025 -5.828510 -1.775332 5.381620 -1.694941 -5.999671 -14.044147 2.211253 -7.281889 8.885504 -7.441519 -28.312316 14.183176 -40.570079 -19.211094 13.937962 -26.739751 -26.284463 0.282001 -16.270060 -15.463548 35.340432 -21.389974 11.125530 -13.940578 35.047719 -12.855763 -3.932204 27.527508 -32.007483 -37.718570 40.285792 -52.855525 -55.324902 3.632679 -18.464309 
24.130163 136.352371 -0.775357 140.380561 42.300603 -122.859110 18.928368 24.068341 -31.522011 -7.998136 -1.487257 5.331997 -15.583375 2.186597 3.433565 1.447765 0.170081 0.321815 -19.211959 -6.659324 -65.711838 5.011811 -5.229957 42.070496 5.581544 -4.152929 -20.118006 3.293818 -0.155883 0.961969 1.976917 -10.922090 49.182984 4.591731 -8.326321 -4.373275 5.315954 -3.607693 -2.849541 -14.425414 2.483675 -7.610579 6.357444 -8.368539 -26.400685 14.981600 -41.734611 -19.430552 9.172603 -32.223685 -27.663200 2.579212 -18.711152 -12.658350 30.740482 -19.988213 5.202556 -12.056678 32.183010 -12.644195 8.775482 25.510731 -24.819265 -42.228235 38.532741 -53.308213 -57.631512 1.719537 -16.875324 
25.530945 135.797607 -1.083855 121.434136 33.197519 -143.664337 19.740392 24.539245 -22.764802 -15.129452 -4.722926 21.981289 -13.115966 -1.545346 -2.024300 0.941766 -0.082365 0.214692 -18.502848 -3.823555 -64.627329 1.766686 -7.813706 41.373120 1.251676 -5.787027 -14.499967 4.410676 0.430426 -0.346052 1.050756 -14.151091 48.514985 6.661427 -9.142369 -4.478485 4.830329 -5.694316 -1.946049 -14.830528 1.168611 -4.780874 4.304716 -9.152040 -26.691242 12.364717 -40.802514 -16.653076 2.693398 -39.291238 -26.167549 6.608302 -28.301955 -12.350587 31.459928 -18.042199 -8.242225 -9.942644 27.343209 -10.482121 18.480159 20.186286 -19.692346 -43.245321 37.279699 -53.010285 -60.206883 -1.845281 -21.549481 
